<svg id="visual" viewBox="0 0 960 300" width="960" height="300" xmlns="http://www.w3.org/2000/svg" xmlns:xlink="http://www.w3.org/1999/xlink" version="1.1"><rect x="0" y="0" width="960" height="300" fill="#f08080"></rect><path d="M0 106L32 99.7C64 93.3 128 80.7 192 74.3C256 68 320 68 384 87C448 106 512 144 576 163C640 182 704 182 768 169.3C832 156.7 896 131.3 928 118.7L960 106L960 0L928 0C896 0 832 0 768 0C704 0 640 0 576 0C512 0 448 0 384 0C320 0 256 0 192 0C128 0 64 0 32 0L0 0Z" fill="#0066FF" stroke-linecap="round" stroke-linejoin="miter"></path></svg>