<svg id="visual" viewBox="0 0 960 150" width="960" height="150" xmlns="http://www.w3.org/2000/svg" xmlns:xlink="http://www.w3.org/1999/xlink" version="1.1"><path d="M0 10L14.5 10.3C29 10.7 58 11.3 87.2 13.2C116.3 15 145.7 18 174.8 20C204 22 233 23 262 24C291 25 320 26 349 24.7C378 23.3 407 19.7 436.2 18.8C465.3 18 494.7 20 523.8 19.5C553 19 582 16 611 16.5C640 17 669 21 698 23.3C727 25.7 756 26.3 785.2 26.7C814.3 27 843.7 27 872.8 26.2C902 25.3 931 23.7 945.5 22.8L960 22L960 0L945.5 0C931 0 902 0 872.8 0C843.7 0 814.3 0 785.2 0C756 0 727 0 698 0C669 0 640 0 611 0C582 0 553 0 523.8 0C494.7 0 465.3 0 436.2 0C407 0 378 0 349 0C320 0 291 0 262 0C233 0 204 0 174.8 0C145.7 0 116.3 0 87.2 0C58 0 29 0 14.5 0L0 0Z" fill="#ff0267"></path><path d="M0 62L14.5 59.3C29 56.7 58 51.3 87.2 50.7C116.3 50 145.7 54 174.8 54.5C204 55 233 52 262 54.5C291 57 320 65 349 63.8C378 62.7 407 52.3 436.2 47.8C465.3 43.3 494.7 44.7 523.8 44.7C553 44.7 582 43.3 611 43.7C640 44 669 46 698 47C727 48 756 48 785.2 49.2C814.3 50.3 843.7 52.7 872.8 52.8C902 53 931 51 945.5 50L960 49L960 20L945.5 20.8C931 21.7 902 23.3 872.8 24.2C843.7 25 814.3 25 785.2 24.7C756 24.3 727 23.7 698 21.3C669 19 640 15 611 14.5C582 14 553 17 523.8 17.5C494.7 18 465.3 16 436.2 16.8C407 17.7 378 21.3 349 22.7C320 24 291 23 262 22C233 21 204 20 174.8 18C145.7 16 116.3 13 87.2 11.2C58 9.3 29 8.7 14.5 8.3L0 8Z" fill="#ff5c3b"></path><path d="M0 91L14.5 88.5C29 86 58 81 87.2 78C116.3 75 145.7 74 174.8 74.5C204 75 233 77 262 79.8C291 82.7 320 86.3 349 84.7C378 83 407 76 436.2 70.7C465.3 65.3 494.7 61.7 523.8 61.8C553 62 582 66 611 67.3C640 68.7 669 67.3 698 66.8C727 66.3 756 66.7 785.2 68.7C814.3 70.7 843.7 74.3 872.8 75.3C902 76.3 931 74.7 945.5 73.8L960 73L960 47L945.5 48C931 49 902 51 872.8 50.8C843.7 50.7 814.3 48.3 785.2 47.2C756 46 727 46 698 45C669 44 640 42 611 41.7C582 41.3 553 42.7 523.8 42.7C494.7 42.7 465.3 41.3 436.2 45.8C407 50.3 378 60.7 349 61.8C320 63 291 55 262 52.5C233 50 204 53 174.8 52.5C145.7 52 116.3 48 87.2 48.7C58 49.3 29 54.7 14.5 57.3L0 60Z" fill="#ff9700"></path><path d="M0 129L14.5 123.7C29 118.3 58 107.7 87.2 100.8C116.3 94 145.7 91 174.8 92.8C204 94.7 233 101.3 262 104C291 106.7 320 105.3 349 103.8C378 102.3 407 100.7 436.2 99.5C465.3 98.3 494.7 97.7 523.8 98.3C553 99 582 101 611 100C640 99 669 95 698 92C727 89 756 87 785.2 90.8C814.3 94.7 843.7 104.3 872.8 106.2C902 108 931 102 945.5 99L960 96L960 71L945.5 71.8C931 72.7 902 74.3 872.8 73.3C843.7 72.3 814.3 68.7 785.2 66.7C756 64.7 727 64.3 698 64.8C669 65.3 640 66.7 611 65.3C582 64 553 60 523.8 59.8C494.7 59.7 465.3 63.3 436.2 68.7C407 74 378 81 349 82.7C320 84.3 291 80.7 262 77.8C233 75 204 73 174.8 72.5C145.7 72 116.3 73 87.2 76C58 79 29 84 14.5 86.5L0 89Z" fill="#d5cd00"></path><path d="M0 151L14.5 151C29 151 58 151 87.2 151C116.3 151 145.7 151 174.8 151C204 151 233 151 262 151C291 151 320 151 349 151C378 151 407 151 436.2 151C465.3 151 494.7 151 523.8 151C553 151 582 151 611 151C640 151 669 151 698 151C727 151 756 151 785.2 151C814.3 151 843.7 151 872.8 151C902 151 931 151 945.5 151L960 151L960 94L945.5 97C931 100 902 106 872.8 104.2C843.7 102.3 814.3 92.7 785.2 88.8C756 85 727 87 698 90C669 93 640 97 611 98C582 99 553 97 523.8 96.3C494.7 95.7 465.3 96.3 436.2 97.5C407 98.7 378 100.3 349 101.8C320 103.3 291 104.7 262 102C233 99.3 204 92.7 174.8 90.8C145.7 89 116.3 92 87.2 98.8C58 105.7 29 116.3 14.5 121.7L0 127Z" fill="#67ff02"></path></svg>