<svg id="visual" viewBox="0 0 960 150" width="960" height="150" xmlns="http://www.w3.org/2000/svg" xmlns:xlink="http://www.w3.org/1999/xlink" version="1.1"><path d="M0 36L14.5 43C29 50 58 64 87.2 63.5C116.3 63 145.7 48 174.8 38.2C204 28.3 233 23.7 262 24.3C291 25 320 31 349 36C378 41 407 45 436.2 42.3C465.3 39.7 494.7 30.3 523.8 31.8C553 33.3 582 45.7 611 51.3C640 57 669 56 698 54C727 52 756 49 785.2 48.5C814.3 48 843.7 50 872.8 48.3C902 46.7 931 41.3 945.5 38.7L960 36L960 0L945.5 0C931 0 902 0 872.8 0C843.7 0 814.3 0 785.2 0C756 0 727 0 698 0C669 0 640 0 611 0C582 0 553 0 523.8 0C494.7 0 465.3 0 436.2 0C407 0 378 0 349 0C320 0 291 0 262 0C233 0 204 0 174.8 0C145.7 0 116.3 0 87.2 0C58 0 29 0 14.5 0L0 0Z" fill="#67ff02"></path><path d="M0 48L14.5 55.7C29 63.3 58 78.7 87.2 80.3C116.3 82 145.7 70 174.8 62.3C204 54.7 233 51.3 262 50.2C291 49 320 50 349 54.2C378 58.3 407 65.7 436.2 66.2C465.3 66.7 494.7 60.3 523.8 61.8C553 63.3 582 72.7 611 76.7C640 80.7 669 79.3 698 78.2C727 77 756 76 785.2 76.5C814.3 77 843.7 79 872.8 76.5C902 74 931 67 945.5 63.5L960 60L960 34L945.5 36.7C931 39.3 902 44.7 872.8 46.3C843.7 48 814.3 46 785.2 46.5C756 47 727 50 698 52C669 54 640 55 611 49.3C582 43.7 553 31.3 523.8 29.8C494.7 28.3 465.3 37.7 436.2 40.3C407 43 378 39 349 34C320 29 291 23 262 22.3C233 21.7 204 26.3 174.8 36.2C145.7 46 116.3 61 87.2 61.5C58 62 29 48 14.5 41L0 34Z" fill="#00f1d5"></path><path d="M0 60L14.5 67.2C29 74.3 58 88.7 87.2 90.8C116.3 93 145.7 83 174.8 76.8C204 70.7 233 68.3 262 68.7C291 69 320 72 349 77C378 82 407 89 436.2 87.2C465.3 85.3 494.7 74.7 523.8 74.8C553 75 582 86 611 92C640 98 669 99 698 97.5C727 96 756 92 785.2 90.8C814.3 89.7 843.7 91.3 872.8 88.8C902 86.3 931 79.7 945.5 76.3L960 73L960 58L945.5 61.5C931 65 902 72 872.8 74.5C843.7 77 814.3 75 785.2 74.5C756 74 727 75 698 76.2C669 77.3 640 78.7 611 74.7C582 70.7 553 61.3 523.8 59.8C494.7 58.3 465.3 64.7 436.2 64.2C407 63.7 378 56.3 349 52.2C320 48 291 47 262 48.2C233 49.3 204 52.7 174.8 60.3C145.7 68 116.3 80 87.2 78.3C58 76.7 29 61.3 14.5 53.7L0 46Z" fill="#00cdff"></path><path d="M0 96L14.5 100.5C29 105 58 114 87.2 116.7C116.3 119.3 145.7 115.7 174.8 111.7C204 107.7 233 103.3 262 101.3C291 99.3 320 99.7 349 101.8C378 104 407 108 436.2 107C465.3 106 494.7 100 523.8 101.5C553 103 582 112 611 115.5C640 119 669 117 698 117.3C727 117.7 756 120.3 785.2 121.7C814.3 123 843.7 123 872.8 119.5C902 116 931 109 945.5 105.5L960 102L960 71L945.5 74.3C931 77.7 902 84.3 872.8 86.8C843.7 89.3 814.3 87.7 785.2 88.8C756 90 727 94 698 95.5C669 97 640 96 611 90C582 84 553 73 523.8 72.8C494.7 72.7 465.3 83.3 436.2 85.2C407 87 378 80 349 75C320 70 291 67 262 66.7C233 66.3 204 68.7 174.8 74.8C145.7 81 116.3 91 87.2 88.8C58 86.7 29 72.3 14.5 65.2L0 58Z" fill="#00a1ff"></path><path d="M0 151L14.5 151C29 151 58 151 87.2 151C116.3 151 145.7 151 174.8 151C204 151 233 151 262 151C291 151 320 151 349 151C378 151 407 151 436.2 151C465.3 151 494.7 151 523.8 151C553 151 582 151 611 151C640 151 669 151 698 151C727 151 756 151 785.2 151C814.3 151 843.7 151 872.8 151C902 151 931 151 945.5 151L960 151L960 100L945.5 103.5C931 107 902 114 872.8 117.5C843.7 121 814.3 121 785.2 119.7C756 118.3 727 115.7 698 115.3C669 115 640 117 611 113.5C582 110 553 101 523.8 99.5C494.7 98 465.3 104 436.2 105C407 106 378 102 349 99.8C320 97.7 291 97.3 262 99.3C233 101.3 204 105.7 174.8 109.7C145.7 113.7 116.3 117.3 87.2 114.7C58 112 29 103 14.5 98.5L0 94Z" fill="#0266ff"></path></svg>